<svg xmlns="http://www.w3.org/2000/svg" viewBox="0 0 1000 422.39"><path fill="#f1e9df" d="M0 0v422.39h127.84V286.07h116.24V170.49H127.84v-55.28h142.53L262.63 0Z"/><path fill="#f1e9df" d="M475.48 0c-117 0-211.2 94.2-211.2 211.2s94.2 211.19 211.2 211.19 211.2-94.2 211.2-211.2S592.47 0 475.47 0m0 86.99a35.6 35.6 0 0 1 35.66 35.66v177.1a35.6 35.6 0 0 1-35.66 35.65 35.6 35.6 0 0 1-35.66-35.66v-177.1A35.6 35.6 0 0 1 475.48 87"/><path fill="#f1e9df" d="m623.32 0 119.83 211.2-119.83 211.19h137l51.34-90.47 51.33 90.47H1000l-119.84-211.2L1000 0H863l-51.34 90.47L760.33 0Z"/></svg>