<svg xmlns="http://www.w3.org/2000/svg" fill="none" viewBox="0 0 1607 400"><g clip-path="url(#a)"><path fill="url(#b)" d="M1606.99 31.25a31.25 31.25 0 1 1-62.5 0 31.25 31.25 0 0 1 62.5 0m-31.25 53.13a31.25 31.25 0 1 0 0 62.5 31.25 31.25 0 0 0 0-62.5m0 84.37a31.25 31.25 0 1 0 0 62.5 31.25 31.25 0 0 0 0-62.5m0 84.37a31.25 31.25 0 1 0 0 62.5 31.25 31.25 0 0 0 0-62.5m0 84.38a31.25 31.25 0 1 0 0 62.5 31.25 31.25 0 0 0 0-62.5"/><path fill="#f1e9df" d="M1213.52 89.35c15.38 0 29.97 3.16 43.38 9.86v56.39c-11.04-9.86-27.61-17.35-44.57-17.35-33.52 0-59.15 27.21-59.15 62.31s25.63 61.91 59.95 61.12c16.96 0 33.12-5.92 43.78-16.56v55.6c-14.2 6.31-28.79 10.65-44.57 10.65-61.92 0-112-49.69-112-110.81s51.27-111.2 113.19-111.2zM217.7 194.64c0 65.68-50.87 117.91-164.85 131.01v69.71H0v-195.2c0-69.8 49.3-110.81 111.22-110.81S217.7 135.49 217.7 194.64m-52.85 1.97c0-32.34-24.45-56.78-55.61-56.78s-56.4 22.08-56.4 60.33v75.28c42.33-1.2 112-24.91 112-78.83zm536.36 3.94c0 61.12 49.69 110.81 112 110.81 15.38 0 30.37-4.34 44.18-10.65v-55.6c-10.25 10.25-26.82 16.56-43.38 16.56-34.31.79-59.95-26.42-59.95-61.12s25.63-62.31 59.15-62.31c16.96 0 33.13 7.49 44.18 17.35V99.2a95 95 0 0 0-42.6-9.86c-62.71 0-113.58 49.69-113.58 111.2zm780.88 104.5-91.82-108.36 81.57-101.04h-64.68l-77.3 102.54V5.36h-53.24v299.7h53.24V201.17l87.95 103.89zm-795.07-94.64v94.64h-52.85v-22.7c-16.27 18.33-39.33 29.01-65.86 29.01-56.4 0-102.54-49.69-102.54-110.02S513.09 89.35 577.38 89.35c71.78 0 109.64 52.84 109.64 121.06m-53.24-9.86c0-35.1-24.45-62.31-57.58-62.31s-58.77 27.21-58.77 62.31 25.64 61.91 58.77 61.91 57.58-26.82 57.58-61.91m453.93 0c0 61.12-50.48 110.81-112.4 110.81s-112-49.69-112-110.81 50.87-111.2 112-111.2 112.4 50.08 112.4 111.2m-52.85 0c0-35.49-26.03-62.31-59.55-62.31s-59.15 27.21-59.15 62.31 25.63 61.91 59.15 61.91 59.55-27.21 59.55-61.91m-583.68-2.36c0 5.13-.4 13.8-1.18 22.87H285.4c7.99 25.74 31.55 41.8 64.83 41.8 25.24 0 49.3-9.07 69.8-26.42v54.81c-17.75 12.62-42.59 20.11-71.38 20.11-68.62 0-117.53-45.35-117.53-109.23s50.09-112.78 112-112.78 108.46 48.5 108.06 108.84M285.8 178.87h110.56c-6.82-24.48-26.88-41.01-53.63-41.01s-48.96 16.56-56.92 41.01z"/></g><defs><linearGradient id="b" x1="1575.74" x2="1575.74" y1="-.83" y2="400.19" gradientUnits="userSpaceOnUse"><stop stop-color="#ffdc23"/><stop offset=".16" stop-color="#ff8700"/><stop offset=".21" stop-color="#ff5401"/><stop offset=".37" stop-color="#d9005a"/><stop offset=".42" stop-color="#c814c8"/><stop offset=".58" stop-color="#8250ff"/><stop offset=".63" stop-color="#6e64ff"/><stop offset=".79" stop-color="#00c8ff"/><stop offset=".84" stop-color="#0c9"/><stop offset=".99" stop-color="#00a637"/></linearGradient><clipPath id="a"><path fill="#fff" d="M0 0h1606.99v400H0z"/></clipPath></defs></svg>